<svg xmlns="http://www.w3.org/2000/svg" enable-background="new 0 0 1024 1024" viewBox="0 0 1024 1024" id="cart"><path d="M941.5,265.1c-13.7,35.4-27.3,70.7-41,106.1c-21.8,56.4-43.6,112.7-65.3,169.1c-5,12.9-10,25.9-15,38.8
				c6.4-4.9,12.9-9.8,19.3-14.7c-15.5,0-31.1,0-46.6,0c-37.1,0-74.3,0-111.4,0c-44.9,0-89.8,0-134.7,0c-38.8,0-77.6,0-116.4,0
				c-18.8,0-37.8-0.8-56.7,0c-0.3,0-0.5,0-0.8,0c6.4,4.9,12.9,9.8,19.3,14.7c-4.8-14.6-9.6-29.2-14.4-43.9
				c-11.6-35.1-23.1-70.2-34.7-105.3c-13.9-42.3-27.8-84.6-41.8-126.9c-12.1-36.7-24.2-73.4-36.2-110.1
				c-5.9-17.8-11.3-35.7-17.6-53.4c-0.1-0.3-0.2-0.5-0.3-0.8c-2.8-8.4-10.2-14.7-19.3-14.7c-48,0-96,0-144,0c-6.9,0-13.8,0-20.7,0
				c-10.5,0-20.5,9.2-20,20c0.5,10.8,8.8,20,20,20c48,0,96,0,144,0c6.9,0,13.8,0,20.7,0c-6.4-4.9-12.9-9.8-19.3-14.7
				c4.8,14.6,9.6,29.2,14.4,43.9c11.6,35.1,23.1,70.2,34.7,105.3c13.9,42.3,27.8,84.6,41.8,126.9c12.1,36.7,24.2,73.4,36.2,110.1
				c5.9,17.8,11.3,35.7,17.6,53.4c0.1,0.3,0.2,0.5,0.3,0.8c2.8,8.4,10.2,14.7,19.3,14.7c15.5,0,31.1,0,46.6,0c37.1,0,74.3,0,111.4,0
				c44.9,0,89.8,0,134.7,0c38.8,0,77.6,0,116.4,0c18.8,0,37.8,0.7,56.7,0c0.3,0,0.5,0,0.8,0c9.5,0,16.1-6.4,19.3-14.7
				c13.7-35.4,27.3-70.7,41-106.1c21.8-56.4,43.6-112.7,65.3-169.1c5-12.9,10-25.9,15-38.8c3.8-9.8-4.2-22.4-14-24.6
				C954.6,248.5,945.5,254.6,941.5,265.1L941.5,265.1z"></path><path d="M355.6 574.3c-16.2 28.9-32.5 57.7-48.7 86.6-2.3 4.2-4.7 8.3-7 12.5-7.4 13.2 1.9 30.1 17.3 30.1 17.3 0 34.6 0 51.9 0 41.6 0 83.1 0 124.7 0 50.3 0 100.6 0 150.9 0 43.5 0 87 0 130.5 0 21.1 0 42.3.5 63.5 0 .3 0 .6 0 .9 0 10.5 0 20.5-9.2 20-20-.5-10.8-8.8-20-20-20-17.3 0-34.6 0-51.9 0-41.6 0-83.1 0-124.7 0-50.3 0-100.6 0-150.9 0-43.5 0-87 0-130.5 0-21.1 0-42.4-.9-63.5 0-.3 0-.6 0-.9 0 5.8 10 11.5 20.1 17.3 30.1 16.2-28.9 32.5-57.7 48.7-86.6 2.3-4.2 4.7-8.3 7-12.5 5.1-9.1 2.5-22.3-7.2-27.4C373.5 562.1 361.1 564.5 355.6 574.3L355.6 574.3zM658.4 828c.4 37.5 23.9 69.9 58.8 83 33 12.4 73.6 1.6 96.1-25.6 23.9-29 28.7-70.3 8.8-102.9-19.6-32.2-57.2-47.9-93.9-40.7C687.7 749.7 658.8 787.5 658.4 828c-.1 10.5 9.3 20.5 20 20 10.9-.5 19.9-8.8 20-20 0-1.6.1-3.3.2-4.9 0-.7.1-1.4.2-2.1.3-4-.1 1.3-.2 1.2-.7-.4 2.1-9 2.4-9.8.3-.8.9-4.2 1.6-4.4.2-.1-1.8 3.7-.7 1.7.4-.8.8-1.6 1.1-2.4 1.5-3 3.3-5.7 5.1-8.5 1.9-2.9-2.7 3.1.5-.6 1-1.1 2-2.3 3.1-3.4 1.1-1.1 2.2-2.2 3.3-3.2.5-.4 1-.9 1.5-1.3.7-.6 3.6-2 1-.9-2.2.9-.6.5.1 0 .7-.5 1.4-1 2.2-1.5 1.1-.7 2.2-1.4 3.4-2 1.5-.9 3.1-1.6 4.7-2.4.5-.3 2.6-1.3 0-.1-3 1.4 1-.3 1.3-.4 2.7-1 5.6-1.8 8.4-2.4.9-.2 1.8-.3 2.7-.5 2.2-.5-1.9.2-1.9.2 1.8 0 3.7-.4 5.5-.4 3.3-.1 6.5 0 9.8.3 3.7.3-3.8-.7.8.2 1.8.3 3.5.8 5.3 1.2 1.5.4 3 .9 4.5 1.4.4.1 2.4.8 2.5.9.1.3-3.7-1.9-1.7-.7 2.8 1.7 5.9 3 8.7 4.8.7.5 1.4 1 2.2 1.5.7.5 2.2.9.1 0-2-.8-.7-.6 0 .1.7.6 1.3 1.1 2 1.7 2.5 2.2 4.6 4.6 6.8 7 3 3.3-1.4-2.3.5.6.8 1.3 1.7 2.5 2.5 3.8.8 1.3 1.6 2.7 2.3 4 .3.6.6 1.2.9 1.8 1.9 3.6.4-.3-.1-.5 1.2.4 2.5 7.6 2.9 8.9.3 1.3.6 2.7.9 4 .8 3.8-.1-1.2-.1-1.3.5.5.3 2.8.3 3.4.2 3 .2 6.1 0 9.1-.1.9-.2 1.8-.2 2.8-.1 2-1.2 1.7.2-1.2-.7 1.5-.7 3.7-1.1 5.3-.7 2.8-1.8 5.5-2.6 8.3-.8 2.5 1.8-3.4.5-1.1-.3.5-.6 1.2-.8 1.8-.8 1.6-1.6 3.1-2.5 4.6-.8 1.3-1.6 2.6-2.5 3.9-2.7 4.1 1.9-2-.4.7-2.2 2.5-4.3 4.9-6.8 7.1-.4.4-2.8 3-3.5 3 0 0 4.1-2.8.9-.8-.6.4-1.1.7-1.6 1.1-2.8 1.8-5.7 3.3-8.6 4.8-3.1 1.6 3.6-1.2-.7.3-1.5.5-2.9 1-4.4 1.5-1.5.4-3 .8-4.6 1.2-.7.1-1.3.3-2 .4-4.4 1 3.2-.2.6 0-3.3.3-6.5.5-9.8.4-1.6 0-3.2-.2-4.9-.3-.6 0-3-.3-.1 0 3.3.3-.7-.2-1.4-.3-3.5-.7-6.9-1.8-10.3-3-.6-.2-2.6-1.2-.1 0 2.9 1.4-.6-.3-1.2-.6-1.6-.8-3.1-1.6-4.6-2.5-1.5-.9-2.9-1.9-4.4-2.9-2.4-1.5.3.8.9.8-.4 0-1.7-1.4-2-1.7-2.6-2.3-5.1-4.7-7.4-7.4 0 0-1.7-1.7-1.7-2 0 .4 2.4 3.4.8.9-1-1.5-2-2.9-2.9-4.4-1-1.7-1.9-3.5-2.8-5.2-2.1-4.1 1 3.2-.6-1.3-1.2-3.4-2.2-6.8-2.9-10.4-.1-.6-.1-1.5-.4-2 1.5 3.3.3 2.8.1.5-.2-2.1-.3-4.2-.3-6.3-.1-10.5-9.1-20.5-20-20C667.7 808.5 658.3 816.8 658.4 828zM313.7 828c.4 37.5 23.9 69.9 58.8 83 33 12.4 73.6 1.6 96.1-25.6 23.9-29 28.7-70.3 8.8-102.9-19.6-32.2-57.2-47.9-93.9-40.7C342.9 749.7 314.1 787.5 313.7 828c-.1 10.5 9.3 20.5 20 20 10.9-.5 19.9-8.8 20-20 0-1.6.1-3.3.2-4.9 0-.7.1-1.4.2-2.1.3-4-.1 1.3-.2 1.2-.7-.4 2.1-9 2.4-9.8.3-.8.9-4.2 1.6-4.4.2-.1-1.8 3.7-.7 1.7.4-.8.8-1.6 1.1-2.4 1.5-3 3.3-5.7 5.1-8.5 1.9-2.9-2.7 3.1.5-.6 1-1.1 2-2.3 3.1-3.4 1.1-1.1 2.2-2.2 3.3-3.2.5-.4 1-.9 1.5-1.3.7-.6 3.6-2 1-.9-2.2.9-.6.5.1 0 .7-.5 1.4-1 2.2-1.5 1.1-.7 2.2-1.4 3.4-2 1.5-.9 3.1-1.6 4.7-2.4.5-.3 2.6-1.3 0-.1-3 1.4 1-.3 1.3-.4 2.7-1 5.6-1.8 8.4-2.4.9-.2 1.8-.3 2.7-.5 2.2-.5-1.9.2-1.9.2 1.8 0 3.7-.4 5.5-.4 3.3-.1 6.5 0 9.8.3 3.7.3-3.8-.7.8.2 1.8.3 3.5.8 5.3 1.2 1.5.4 3 .9 4.5 1.4.4.1 2.4.8 2.5.9.1.3-3.7-1.9-1.7-.7 2.8 1.7 5.9 3 8.7 4.8.7.5 1.4 1 2.2 1.5.7.5 2.2.9.1 0-2-.8-.7-.6 0 .1.7.6 1.3 1.1 2 1.7 2.5 2.2 4.6 4.6 6.8 7 3 3.3-1.4-2.3.5.6.8 1.3 1.7 2.5 2.5 3.8.8 1.3 1.6 2.7 2.3 4 .3.6.6 1.2.9 1.8 1.9 3.6.4-.3-.1-.5 1.2.4 2.5 7.6 2.9 8.9.3 1.3.6 2.7.9 4 .8 3.8-.1-1.2-.1-1.3.5.5.3 2.8.3 3.4.2 3 .2 6.1 0 9.1-.1.9-.2 1.8-.2 2.8-.1 2-1.2 1.7.2-1.2-.7 1.5-.7 3.7-1.1 5.3-.7 2.8-1.8 5.5-2.6 8.3-.8 2.5 1.8-3.4.5-1.1-.3.5-.6 1.2-.8 1.8-.8 1.6-1.6 3.1-2.5 4.6-.8 1.3-1.6 2.6-2.5 3.9-2.7 4.1 1.9-2-.4.7-2.2 2.5-4.3 4.9-6.8 7.1-.4.4-2.8 3-3.5 3 0 0 4.1-2.8.9-.8-.6.4-1.1.7-1.6 1.1-2.8 1.8-5.7 3.3-8.6 4.8-3.1 1.6 3.6-1.2-.7.3-1.5.5-2.9 1-4.4 1.5-1.5.4-3 .8-4.6 1.2-.7.1-1.3.3-2 .4-4.4 1 3.2-.2.6 0-3.3.3-6.5.5-9.8.4-1.6 0-3.2-.2-4.9-.3-.6 0-3-.3-.1 0 3.3.3-.7-.2-1.4-.3-3.5-.7-6.9-1.8-10.3-3-.6-.2-2.6-1.2-.1 0 2.9 1.4-.6-.3-1.2-.6-1.6-.8-3.1-1.6-4.6-2.5-1.5-.9-2.9-1.9-4.4-2.9-2.4-1.5.3.8.9.8-.4 0-1.7-1.4-2-1.7-2.6-2.3-5.1-4.7-7.4-7.4 0 0-1.7-1.7-1.7-2 0 .4 2.4 3.4.8.9-1-1.5-2-2.9-2.9-4.4-1-1.7-1.9-3.5-2.8-5.2-2.1-4.1 1 3.2-.6-1.3-1.2-3.4-2.2-6.8-2.9-10.4-.1-.6-.1-1.5-.4-2 1.5 3.3.3 2.8.1.5-.2-2.1-.3-4.2-.3-6.3-.1-10.5-9.1-20.5-20-20C322.9 808.5 313.5 816.8 313.7 828zM471.4 296.6c33.9 33.9 67.7 67.7 101.6 101.6 4.8 4.8 9.5 9.5 14.3 14.3 7.6 7.6 20.6 7.7 28.3 0 33.9-33.9 67.7-67.7 101.6-101.6 4.8-4.8 9.5-9.5 14.3-14.3 7.4-7.4 8-21 0-28.3-8-7.3-20.4-7.9-28.3 0-33.9 33.9-67.7 67.7-101.6 101.6-4.8 4.8-9.5 9.5-14.3 14.3 9.4 0 18.9 0 28.3 0-33.9-33.9-67.7-67.7-101.6-101.6-4.8-4.8-9.5-9.5-14.3-14.3-7.4-7.4-21-8-28.3 0C464.1 276.3 463.5 288.7 471.4 296.6L471.4 296.6z"></path><path d="M621.4,398.3c0-30.5,0-61,0-91.5c0-48.6,0-97.1,0-145.7c0-11.1,0-22.2,0-33.3c0-10.5-9.2-20.5-20-20
				c-10.8,0.5-20,8.8-20,20c0,30.5,0,61,0,91.5c0,48.6,0,97.1,0,145.7c0,11.1,0,22.2,0,33.3c0,10.5,9.2,20.5,20,20
				C612.2,417.9,621.4,409.6,621.4,398.3L621.4,398.3z"></path></svg>